<?xml version="1.0" standalone="no"?><!DOCTYPE svg PUBLIC "-//W3C//DTD SVG 1.1//EN" "http://www.w3.org/Graphics/SVG/1.1/DTD/svg11.dtd"><svg t="1572753212839" class="icon" viewBox="0 0 1024 1024" version="1.1" xmlns="http://www.w3.org/2000/svg" p-id="1981" xmlns:xlink="http://www.w3.org/1999/xlink" width="16" height="16"><defs><style type="text/css"></style></defs><path d="M509.4 958.2c-60.4 0-118.9-11.9-174.1-35.1-53.2-22.5-101.1-54.8-142.1-95.9-41-41-73.3-88.9-95.9-142.1C74 629.9 62.2 571.4 62.2 511S74 392.1 97.3 337c22.5-53.2 54.8-101.1 95.9-142.1 41-41 88.9-73.3 142.1-95.9C390.5 75.7 449 63.9 509.4 63.9S628.3 75.7 683.5 99c53.2 22.5 101.1 54.8 142.1 95.9 41 41 73.3 88.9 95.9 142.1 23.3 55.2 35.1 113.7 35.1 174.1S944.7 630 921.5 685.2c-22.5 53.3-54.8 101.1-95.9 142.1-41 41-88.9 73.3-142.1 95.9-55.2 23.2-113.7 35-174.1 35z m0-827.9c-209.9 0-380.7 170.8-380.7 380.7s170.8 380.7 380.7 380.7S890.1 720.9 890.1 511 719.3 130.3 509.4 130.3z" fill="#707070" p-id="1982"></path><path d="M341.6 410.1m-55.9 0a55.9 55.9 0 1 0 111.8 0 55.9 55.9 0 1 0-111.8 0Z" fill="#707070" p-id="1983"></path><path d="M677.2 409m-55.9 0a55.9 55.9 0 1 0 111.8 0 55.9 55.9 0 1 0-111.8 0Z" fill="#707070" p-id="1984"></path><path d="M518.4 608.5c52.5 1 100.4 26.2 142.4 75 10.8 12.5 9.4 31.5-3.2 42.3-12.5 10.8-31.5 9.4-42.3-3.2-30.3-35.2-63.1-53.4-97.7-54.2h-2.3c-61.3 0-111.8 52.8-112.7 53.7-11.2 12.1-30.2 12.8-42.3 1.5-12.2-11.3-12.9-30.3-1.6-42.4 2.8-3.1 68.6-72.8 156.6-72.8 1 0 2.1 0 3.1 0.1z" fill="#707070" p-id="1985"></path></svg>