<?xml version="1.0" standalone="no"?><!DOCTYPE svg PUBLIC "-//W3C//DTD SVG 1.1//EN" "http://www.w3.org/Graphics/SVG/1.1/DTD/svg11.dtd"><svg t="1572593494520" class="icon" viewBox="0 0 1024 1024" version="1.1" xmlns="http://www.w3.org/2000/svg" p-id="1511" width="16" height="16" xmlns:xlink="http://www.w3.org/1999/xlink"><defs><style type="text/css"></style></defs><path d="M482.257261 541.742739 263.435685 541.742739c-16.995851 0-29.742739-12.746888-29.742739-29.742739s12.746888-29.742739 29.742739-29.742739l220.946058 0 0 0L484.381743 263.435685c0-16.995851 12.746888-29.742739 29.742739-29.742739 16.995851 0 29.742739 12.746888 29.742739 29.742739l0 218.821577 0 0 220.946058 0c16.995851 0 29.742739 12.746888 29.742739 29.742739s-12.746888 29.742739-29.742739 29.742739L541.742739 541.742739l0 0 0 218.821577c0 16.995851-12.746888 29.742739-29.742739 29.742739-16.995851 0-29.742739-12.746888-29.742739-29.742739L482.257261 541.742739" p-id="1512"></path></svg>